<svg width="260" height="92" viewBox="0 0 260 92" fill="none" xmlns="http://www.w3.org/2000/svg">
<rect width="260" height="92" rx="12" fill="white"/>
<path d="M10.8384 68.7648V18.9998L20.3678 28.5293V59.2354H32.5444V49.7059L41.015 59.2354V68.7648H10.8384Z" fill="#4154F1"/>
<path d="M62.7207 23.2352L62.7207 73.0002L53.1912 63.4707L53.1912 32.7646L41.0147 32.7646L41.0147 42.2941L32.5441 32.7646L32.5441 23.2352L62.7207 23.2352Z" fill="#4154F1"/>
<g clip-path="url(#clip0_30_790)">
<path d="M107.527 68.42L88.8432 35.404C88.9446 36.2966 89.0359 37.1892 89.117 38.0818C89.1982 38.8527 89.259 39.6844 89.2996 40.577C89.3605 41.4696 89.3909 42.3217 89.3909 43.1331V68.42H81.4184V25.5449H91.6731L110.631 58.8347C110.529 57.9827 110.438 57.0901 110.357 56.1569C110.276 55.3658 110.205 54.4732 110.144 53.4792C110.103 52.4851 110.083 51.4809 110.083 50.4666V25.5449H118.055V68.42H107.527ZM164.461 56.1874C164.461 58.358 164.024 60.2244 163.152 61.7864C162.28 63.3282 161.083 64.5961 159.561 65.5901C158.06 66.5638 156.305 67.284 154.297 67.7506C152.289 68.1969 150.159 68.42 147.907 68.42H126.454V25.5449H146.081C148.617 25.5449 150.869 25.768 152.836 26.2143C154.824 26.6403 156.498 27.2996 157.857 28.1922C159.216 29.0848 160.241 30.2107 160.931 31.5699C161.641 32.9088 161.996 34.4911 161.996 36.3169C161.996 38.7513 161.316 40.8103 159.957 42.4941C158.618 44.1576 156.569 45.2835 153.81 45.8718C157.279 46.2775 159.916 47.373 161.722 49.1582C163.548 50.9231 164.461 53.2661 164.461 56.1874ZM152.958 37.5341C152.958 35.6069 152.339 34.2376 151.102 33.4261C149.885 32.6146 148.069 32.2089 145.655 32.2089H135.431V42.8288H145.716C148.252 42.8288 150.088 42.3927 151.224 41.5204C152.38 40.6278 152.958 39.299 152.958 37.5341ZM155.453 55.4875C155.453 54.3515 155.23 53.398 154.784 52.6271C154.338 51.8562 153.719 51.2375 152.928 50.7709C152.157 50.3043 151.244 49.9696 150.189 49.7668C149.154 49.5639 148.029 49.4625 146.811 49.4625H135.431V61.756H147.146C148.323 61.756 149.418 61.6647 150.432 61.4821C151.447 61.2793 152.319 60.9445 153.049 60.4779C153.8 59.9911 154.388 59.3419 154.814 58.5305C155.24 57.719 155.453 56.7047 155.453 55.4875ZM180.466 32.4828V45.7501H202.406V52.688H180.466V68.42H171.49V25.5449H203.106V32.4828H180.466ZM229.61 61.969C231.294 61.969 232.744 61.7357 233.962 61.2691C235.199 60.7822 236.264 60.1534 237.157 59.3825C238.069 58.6116 238.82 57.7393 239.408 56.7655C240.017 55.7918 240.514 54.8079 240.899 53.8139L248.72 56.7655C248.091 58.3073 247.269 59.8186 246.255 61.2995C245.241 62.7804 243.973 64.0889 242.451 65.2249C240.93 66.361 239.114 67.284 237.004 67.994C234.915 68.6838 232.45 69.0286 229.61 69.0286C225.898 69.0286 222.682 68.4809 219.964 67.3854C217.246 66.2697 214.994 64.7279 213.209 62.7602C211.444 60.7721 210.125 58.4189 209.253 55.7005C208.401 52.9821 207.975 50.0102 207.975 46.7847C207.975 43.4374 208.401 40.4147 209.253 37.7167C210.125 35.0186 211.434 32.7262 213.178 30.8396C214.923 28.9327 217.124 27.4721 219.781 26.4577C222.459 25.4231 225.604 24.9058 229.215 24.9058C232.014 24.9058 234.459 25.2 236.548 25.7883C238.658 26.3766 240.473 27.2083 241.995 28.2835C243.537 29.3384 244.805 30.5962 245.799 32.0568C246.813 33.4971 247.604 35.0896 248.172 36.8342L240.26 38.9947C239.976 38.0818 239.54 37.2095 238.952 36.3778C238.364 35.5257 237.613 34.7751 236.7 34.126C235.808 33.4768 234.753 32.9595 233.535 32.5741C232.318 32.1683 230.939 31.9655 229.397 31.9655C227.226 31.9655 225.36 32.3205 223.798 33.0305C222.236 33.7203 220.948 34.7143 219.934 36.0126C218.939 37.3109 218.199 38.873 217.712 40.6988C217.246 42.5042 217.012 44.5329 217.012 46.7847C217.012 49.0162 217.246 51.0651 217.712 52.9314C218.199 54.7775 218.95 56.37 219.964 57.7089C220.978 59.0478 222.277 60.0925 223.859 60.8431C225.462 61.5937 227.379 61.969 229.61 61.969Z" fill="black"/>
</g>
<defs>
<clipPath id="clip0_30_790">
<rect width="168.893" height="48.5706" fill="white" transform="translate(80.2686 21.7147)"/>
</clipPath>
</defs>
</svg>
